<svg width="20" height="18" viewBox="0 0 20 18" fill="none" xmlns="http://www.w3.org/2000/svg">
<path d="M18.75 7.50156H3.925L8.4625 2.05157C8.67467 1.79629 8.77675 1.46719 8.74628 1.13666C8.7158 0.806128 8.55527 0.501239 8.3 0.289065C8.04473 0.0768921 7.71563 -0.0251853 7.3851 0.00528938C7.05456 0.035764 6.74967 0.196295 6.5375 0.451565L0.2875 7.95156C0.245451 8.01122 0.207849 8.07389 0.175 8.13907C0.175 8.20157 0.175 8.23907 0.0875002 8.30157C0.0308421 8.44489 0.0011764 8.59745 0 8.75156C0.0011764 8.90568 0.0308421 9.05824 0.0875002 9.20156C0.0875002 9.26406 0.0874998 9.30157 0.175 9.36407C0.207849 9.42924 0.245451 9.49191 0.2875 9.55157L6.5375 17.0516C6.65503 17.1927 6.8022 17.3061 6.96856 17.3839C7.13491 17.4617 7.31636 17.5019 7.5 17.5016C7.79207 17.5021 8.07511 17.4004 8.3 17.2141C8.42657 17.1091 8.5312 16.9803 8.60789 16.8348C8.68458 16.6894 8.73183 16.5303 8.74692 16.3665C8.76202 16.2028 8.74466 16.0377 8.69586 15.8807C8.64705 15.7237 8.56775 15.5779 8.4625 15.4516L3.925 10.0016H18.75C19.0815 10.0016 19.3995 9.86987 19.6339 9.63545C19.8683 9.40103 20 9.08309 20 8.75156C20 8.42004 19.8683 8.1021 19.6339 7.86768C19.3995 7.63326 19.0815 7.50156 18.75 7.50156Z" />
</svg>
